<svg id="Layer_1" data-name="Layer 1" xmlns="http://www.w3.org/2000/svg" viewBox="0 0 1380.05 913.07"><defs><style>.cls-1{fill:#fff;}</style></defs><title>TS_LOGO_white</title><path class="cls-1" d="M229,716.34H171.3a6.95,6.95,0,0,0-7.19,7.19,7.3,7.3,0,0,0,2,5.26,6.84,6.84,0,0,0,5.16,2.12h21V839.7a7.17,7.17,0,0,0,2.3,5.35,7.8,7.8,0,0,0,10.88,0,7.15,7.15,0,0,0,2.31-5.35V730.91H229a6.88,6.88,0,0,0,5.17-2.12,7.34,7.34,0,0,0,2-5.26,6.95,6.95,0,0,0-7.2-7.19Z"/><path class="cls-1" d="M282.48,714.49q-16.78,0-26.74,10.15a32.84,32.84,0,0,0-10,23.78v64.73a33.18,33.18,0,0,0,10,23.88q10,10.23,26.74,10.23,16.41,0,26.46-10.23T319,813.33V748.42q0-13.45-10.05-23.69T282.48,714.49Zm20.83,99A18.52,18.52,0,0,1,297.69,827q-5.62,5.73-15.21,5.72-9.78,0-15.4-5.72a18.74,18.74,0,0,1-5.62-13.64V748.24a18.56,18.56,0,0,1,5.62-13.46q5.63-5.71,15.4-5.72,9.58,0,15.21,5.72a18.56,18.56,0,0,1,5.62,13.46Z"/><path class="cls-1" d="M393.28,714.49a7.56,7.56,0,0,0-5.43,2.22,7.13,7.13,0,0,0-2.31,5.35v96.25a13.57,13.57,0,0,1-4.43,10.14,14.87,14.87,0,0,1-10.69,4.24,14.46,14.46,0,0,1-10.33-4.24,13.56,13.56,0,0,1-4.42-10.14V804.66a7.13,7.13,0,0,0-2.31-5.34,7.78,7.78,0,0,0-10.88,0,7.15,7.15,0,0,0-2.3,5.34v12.73a28.49,28.49,0,0,0,8.94,21.11,31.29,31.29,0,0,0,43.33.09,28.68,28.68,0,0,0,8.77-21.2V722.06a7,7,0,0,0-2.4-5.35A7.92,7.92,0,0,0,393.28,714.49Z"/><path class="cls-1" d="M517.82,778.76q-8.21-4.89-16.41-9a57.66,57.66,0,0,1-13.92-9.59,17.41,17.41,0,0,1-.09-25.72A19,19,0,0,1,501,729.06a18.37,18.37,0,0,1,12,4.24,19,19,0,0,1,6.64,10.7q1.47,6.63,7.74,6.64a7.59,7.59,0,0,0,5.44-2.22,7.34,7.34,0,0,0,2.31-5.53,15.32,15.32,0,0,0-.56-3.5,31.38,31.38,0,0,0-11.43-17.61q-9-7.29-21.94-7.29a34.75,34.75,0,0,0-24.8,9.69,31.74,31.74,0,0,0-10.24,24.06,33.43,33.43,0,0,0,14.39,28q6.08,4.05,13.36,8.2t13.37,7.38a31.49,31.49,0,0,1,10.24,8.57,19.39,19.39,0,0,1,4.15,12.17q0,8.85-5.63,14.48t-15,5.62q-9.58,0-15.12-4.79t-6.08-13.1a8.67,8.67,0,0,0-2.4-5.34,7.93,7.93,0,0,0-10.79.18,7.7,7.7,0,0,0-2.12,5.53q0,13.1,10,22.59t26.18,9.5q17,0,26.93-10.23t10-23.7q0-12.17-5.71-20.93A42.61,42.61,0,0,0,517.82,778.76Z"/><path class="cls-1" d="M596.27,714.49q-16.78,0-26.74,10.15a32.84,32.84,0,0,0-9.95,23.78v64.73A33.18,33.18,0,0,0,569.53,837q10,10.23,26.74,10.23,16.41,0,26.46-10.23t10-23.7V748.42q0-13.45-10-23.69T596.27,714.49Zm20.84,99A18.53,18.53,0,0,1,611.48,827q-5.62,5.73-15.21,5.72-9.78,0-15.4-5.72a18.78,18.78,0,0,1-5.62-13.64V748.24a18.6,18.6,0,0,1,5.62-13.46q5.63-5.71,15.4-5.72,9.59,0,15.21,5.72a18.57,18.57,0,0,1,5.63,13.46Z"/><path class="cls-1" d="M691.4,776.63l36.33-50a8.62,8.62,0,0,0,1.85-5,6.85,6.85,0,0,0-2.13-5.17,7.08,7.08,0,0,0-5.07-2,6.61,6.61,0,0,0-5.9,3.14l-40.56,58.09V722.06a7.13,7.13,0,0,0-2.31-5.35,7.78,7.78,0,0,0-10.88,0,7.16,7.16,0,0,0-2.3,5.35V839.7a7.17,7.17,0,0,0,2.3,5.35,7.8,7.8,0,0,0,10.88,0,7.15,7.15,0,0,0,2.31-5.35V778.85l41.3,64.35a7.87,7.87,0,0,0,12.26,1.94,6.85,6.85,0,0,0,2.31-5.26,11.38,11.38,0,0,0-2-5.53Z"/><path class="cls-1" d="M815.31,714.49a7.59,7.59,0,0,0-5.45,2.22,7.16,7.16,0,0,0-2.3,5.35v48.12h-40V722.06a7.13,7.13,0,0,0-2.31-5.35,7.78,7.78,0,0,0-10.88,0,7.16,7.16,0,0,0-2.3,5.35V839.7a7.17,7.17,0,0,0,2.3,5.35,7.8,7.8,0,0,0,10.88,0,7.15,7.15,0,0,0,2.31-5.35V784.57h40V839.7a7.17,7.17,0,0,0,2.3,5.35,7.81,7.81,0,0,0,10.89,0,7.17,7.17,0,0,0,2.3-5.35V722.06a7.16,7.16,0,0,0-2.3-5.35A7.6,7.6,0,0,0,815.31,714.49Z"/><path class="cls-1" d="M904.54,716.34H846.83a6.95,6.95,0,0,0-7.2,7.19,7.34,7.34,0,0,0,2,5.26,6.88,6.88,0,0,0,5.17,2.12h21V839.7a7.17,7.17,0,0,0,2.3,5.35,7.8,7.8,0,0,0,10.88,0,7.15,7.15,0,0,0,2.31-5.35V730.91h21.2a6.88,6.88,0,0,0,5.17-2.12,7.33,7.33,0,0,0,2-5.26,6.93,6.93,0,0,0-7.19-7.19Z"/><path class="cls-1" d="M1007.24,714.49q-6.27,0-9.41,6.46l-25.26,54-25.63-54q-3.13-6.45-9.4-6.46a8.61,8.61,0,0,0-6.73,2.77,10.62,10.62,0,0,0-2.49,7.38V839.7a7.56,7.56,0,1,0,15.12,0V780.88q0-16.61-.55-39.46l20.46,43.51q3.14,6.47,9,6.46c3.93,0,7-2.15,9-6.46l20.47-43.7-.55,39.83V839.7a7.56,7.56,0,1,0,15.12,0V724.64a10.62,10.62,0,0,0-2.49-7.38A8.61,8.61,0,0,0,1007.24,714.49Z"/><path class="cls-1" d="M1080.8,714.49q-16.79,0-26.74,10.15a32.85,32.85,0,0,0-10,23.78v64.73q0,13.64,10,23.88t26.74,10.23q16.41,0,26.46-10.23t10-23.7V748.42q0-13.45-10-23.69T1080.8,714.49Zm20.83,99A18.52,18.52,0,0,1,1096,827q-5.62,5.73-15.21,5.72-9.78,0-15.4-5.72a18.75,18.75,0,0,1-5.63-13.64V748.24a18.57,18.57,0,0,1,5.63-13.46q5.63-5.71,15.4-5.72,9.59,0,15.21,5.72a18.56,18.56,0,0,1,5.62,13.46Z"/><path class="cls-1" d="M1213.92,716.71a7.12,7.12,0,0,0-10.33,0,7.64,7.64,0,0,0-2,5.35v62.51q0,16.59.92,30L1161.91,721q-2.76-6.45-8.66-6.46a7.43,7.43,0,0,0-6.18,2.68,10.81,10.81,0,0,0-2.12,6.91V839.7a7.66,7.66,0,0,0,2,5.35,7.14,7.14,0,0,0,10.33,0,7.65,7.65,0,0,0,2-5.35V777.93q0-13.47-.92-30.43L1199,840.81q2.76,6.45,8.67,6.45a7.38,7.38,0,0,0,6.17-2.68,10.73,10.73,0,0,0,2.12-6.91V722.06A7.63,7.63,0,0,0,1213.92,716.71Z"/><path class="cls-1" d="M1005.22,477.08,953.53,449v17.93l40,21.8v96.65a7.88,7.88,0,0,0,15.75,0V484A7.91,7.91,0,0,0,1005.22,477.08Z"/><path class="cls-1" d="M936,363.3,818.92,299.57v17.95l105.44,57.37V577.45H870.93V421.92l40,21.8V425.8l-44.17-24a7.87,7.87,0,0,0-11.62,6.93V585.33A7.85,7.85,0,0,0,863,593.2h69.22a7.88,7.88,0,0,0,7.86-7.87V370.23A7.9,7.9,0,0,0,936,363.3Z"/><path class="cls-1" d="M370.73,484V585.33a7.88,7.88,0,0,0,15.75,0V488.68l40.07-21.8V449l-51.69,28.13A7.86,7.86,0,0,0,370.73,484Z"/><path class="cls-1" d="M439.94,370.23v215.1a7.88,7.88,0,0,0,7.85,7.87h69.26a7.87,7.87,0,0,0,7.85-7.87V408.69a7.9,7.9,0,0,0-11.65-6.93l-44.17,24v17.92l40.07-21.8V577.45H455.69V374.89l105.44-57.37V299.6L444,363.3A7.9,7.9,0,0,0,439.94,370.23Z"/><path class="cls-1" d="M801.43,125.33,693.79,66.76a8,8,0,0,0-7.53,0L578.65,125.33a7.86,7.86,0,0,0-4.13,6.93V585.33a7.88,7.88,0,0,0,7.84,7.87H655.6v0a7.86,7.86,0,0,0,7.69-7.85V257.26a7.79,7.79,0,0,0-3.84-6.77,7.88,7.88,0,0,0-7.78-.16l-48,26.11v17.93l43.88-23.88v307H590.27V136.92L690,82.64l99.74,54.28V577.45H732.51v-307l43.88,23.88V276.44l-48-26.11a7.94,7.94,0,0,0-7.81.16,7.8,7.8,0,0,0-3.85,6.77V585.33a7.88,7.88,0,0,0,7.79,7.86h73.11a7.88,7.88,0,0,0,7.88-7.87V132.26A7.9,7.9,0,0,0,801.43,125.33Z"/></svg>